<svg width="90" height="90" viewBox="0 0 90 90" fill="none" xmlns="http://www.w3.org/2000/svg">
<g clip-path="url(#clip0_4_77)">
<path d="M88.9031 83.6016L66.5156 61.2141C72.6132 53.7563 75.611 44.2403 74.8892 34.6342C74.1673 25.0282 69.7809 16.067 62.6373 9.60434C55.4936 3.14166 46.1393 -0.328108 36.5092 -0.0872823C26.8791 0.153543 17.7099 4.08654 10.8982 10.8982C4.08654 17.7099 0.153543 26.8791 -0.0872823 36.5092C-0.328108 46.1393 3.14166 55.4936 9.60434 62.6373C16.067 69.7809 25.0282 74.1673 34.6342 74.8892C44.2403 75.611 53.7563 72.6132 61.2141 66.5156L83.6016 88.9031C84.3169 89.5423 85.2498 89.8835 86.2087 89.8566C87.1677 89.8296 88.08 89.4367 88.7583 88.7583C89.4367 88.08 89.8296 87.1677 89.8566 86.2087C89.8835 85.2498 89.5423 84.3169 88.9031 83.6016ZM37.5047 67.5C31.5682 67.5028 25.7643 65.7448 20.8271 62.4484C15.8899 59.152 12.0414 54.4653 9.76827 48.9812C7.49519 43.4971 6.89972 37.4621 8.05719 31.6395C9.21466 25.817 12.0731 20.4685 16.2708 16.2708C20.4685 12.0731 25.817 9.21466 31.6395 8.05719C37.4621 6.89972 43.4971 7.49519 48.9812 9.76827C54.4653 12.0414 59.152 15.8899 62.4484 20.8271C65.7448 25.7643 67.5028 31.5682 67.5 37.5047C67.4888 45.4565 64.325 53.0795 58.7023 58.7023C53.0795 64.325 45.4565 67.4888 37.5047 67.5Z" fill="#21251E"/>
<g clip-path="url(#clip1_4_77)">
<path fill-rule="evenodd" clip-rule="evenodd" d="M49.8828 25.3125L49.6453 25.357L41.7188 28.4297L32.8125 25.3125L24.4406 28.1328C24.1289 28.2367 23.9062 28.5039 23.9062 28.8453V51.2891C23.9062 51.7047 24.2328 52.0312 24.6484 52.0312L24.8859 51.9867L32.8125 48.9141L41.7188 52.0312L50.0906 49.2109C50.4023 49.107 50.625 48.8398 50.625 48.4984V26.0547C50.625 25.6391 50.2984 25.3125 49.8828 25.3125ZM34.2969 28.9789L40.2344 31.057V48.3648L34.2969 46.2867V28.9789ZM26.875 30.4484L31.3281 28.9492V46.3164L26.875 48.0383V30.4484ZM47.6562 46.8953L43.2031 48.3945V31.0422L47.6562 29.3203V46.8953Z" fill="#9CEC5B"/>
</g>
</g>
<defs>
<clipPath id="clip0_4_77">
<rect width="90" height="90" fill="white"/>
</clipPath>
<clipPath id="clip1_4_77">
<rect width="26.7188" height="26.7188" fill="white" transform="translate(23.9062 25.3125)"/>
</clipPath>
</defs>
</svg>
